G04 #@! TF.FileFunction,Copper,L1,Top,Signal*
%FSLAX46Y46*%
G04 Gerber Fmt 4.6, Leading zero omitted, Abs format (unit mm)*
G04 Created by KiCad (PCBNEW 4.0.5-e0-6337~49~ubuntu15.04.1) date Thu Jan 26 14:42:06 2017*
%MOMM*%
%LPD*%
G01*
G04 APERTURE LIST*
%ADD10C,0.100000*%
%ADD11C,1.700000*%
%ADD12R,0.400000X0.400000*%
%ADD13R,0.600000X0.500000*%
%ADD14R,0.600000X0.400000*%
%ADD15C,0.600000*%
%ADD16C,0.250000*%
%ADD17C,0.254000*%
G04 APERTURE END LIST*
D10*
D11*
X131840000Y-97460000D03*
X131840000Y-100000000D03*
X131840000Y-102540000D03*
X142000000Y-97460000D03*
X142000000Y-100000000D03*
X142000000Y-102540000D03*
D12*
X136145000Y-99525000D03*
X136145000Y-100175000D03*
X136145000Y-100825000D03*
X136145000Y-101475000D03*
X134695000Y-99525000D03*
X134695000Y-100175000D03*
X134695000Y-100825000D03*
X134695000Y-101475000D03*
D13*
X134870000Y-98500000D03*
X135970000Y-98500000D03*
D14*
X137670000Y-99200000D03*
X137670000Y-98300000D03*
X137670000Y-100550000D03*
X137670000Y-101450000D03*
D15*
X134870000Y-97500000D03*
X138670000Y-99875000D03*
D16*
X137670000Y-100550000D02*
X137995000Y-100550000D01*
X137995000Y-100550000D02*
X138670000Y-99875000D01*
X137670000Y-99200000D02*
X137995000Y-99200000D01*
X137995000Y-99200000D02*
X138670000Y-99875000D01*
X134870000Y-98500000D02*
X134870000Y-97500000D01*
X134870000Y-98500000D02*
X134870000Y-99350000D01*
X134870000Y-99350000D02*
X134695000Y-99525000D01*
X134695000Y-99525000D02*
X135145000Y-99525000D01*
X135145000Y-99525000D02*
X135370000Y-99750000D01*
X135370000Y-99750000D02*
X135370000Y-100600000D01*
X135370000Y-100600000D02*
X135145000Y-100825000D01*
X135145000Y-100825000D02*
X134695000Y-100825000D01*
X135970000Y-98500000D02*
X135970000Y-99350000D01*
X135970000Y-99350000D02*
X136145000Y-99525000D01*
X137670000Y-98300000D02*
X141160000Y-98300000D01*
X141160000Y-98300000D02*
X142000000Y-97460000D01*
X136145000Y-100825000D02*
X136480002Y-100825000D01*
X136480002Y-100825000D02*
X136750000Y-100555002D01*
X136750000Y-100555002D02*
X136750000Y-98860000D01*
X136750000Y-98860000D02*
X137310000Y-98300000D01*
X137310000Y-98300000D02*
X137670000Y-98300000D01*
X137670000Y-101450000D02*
X140550000Y-101450000D01*
X140550000Y-101450000D02*
X142000000Y-100000000D01*
X136145000Y-101475000D02*
X137645000Y-101475000D01*
X137645000Y-101475000D02*
X137670000Y-101450000D01*
D17*
G36*
X141303605Y-96415800D02*
X140957017Y-96761784D01*
X140769214Y-97214065D01*
X140768787Y-97703787D01*
X140806062Y-97794000D01*
X138197032Y-97794000D01*
X138121134Y-97742141D01*
X137970000Y-97711536D01*
X137370000Y-97711536D01*
X137228810Y-97738103D01*
X137099135Y-97821546D01*
X137070869Y-97862914D01*
X136952204Y-97942204D01*
X136651000Y-98243408D01*
X136651000Y-98174215D01*
X136592996Y-98034181D01*
X136485820Y-97927004D01*
X136345786Y-97869000D01*
X136192250Y-97869000D01*
X136097000Y-97964250D01*
X136097000Y-98375000D01*
X136117000Y-98375000D01*
X136117000Y-98625000D01*
X136097000Y-98625000D01*
X136097000Y-98647000D01*
X135843000Y-98647000D01*
X135843000Y-98625000D01*
X135823000Y-98625000D01*
X135823000Y-98375000D01*
X135843000Y-98375000D01*
X135843000Y-97964250D01*
X135747750Y-97869000D01*
X135594214Y-97869000D01*
X135454180Y-97927004D01*
X135420886Y-97960298D01*
X135392350Y-97940801D01*
X135446987Y-97886259D01*
X135550882Y-97636054D01*
X135551118Y-97365135D01*
X135447661Y-97114748D01*
X135256259Y-96923013D01*
X135006054Y-96819118D01*
X134735135Y-96818882D01*
X134484748Y-96922339D01*
X134293013Y-97113741D01*
X134189118Y-97363946D01*
X134188882Y-97634865D01*
X134292339Y-97885252D01*
X134347448Y-97940457D01*
X134299135Y-97971546D01*
X134212141Y-98098866D01*
X134181536Y-98250000D01*
X134181536Y-98750000D01*
X134208103Y-98891190D01*
X134283493Y-99008350D01*
X134224135Y-99046546D01*
X134137141Y-99173866D01*
X134106536Y-99325000D01*
X134106536Y-99725000D01*
X134131409Y-99857186D01*
X134114000Y-99899214D01*
X134114000Y-99979750D01*
X134209250Y-100075000D01*
X134332364Y-100075000D01*
X134343866Y-100082859D01*
X134495000Y-100113464D01*
X134842000Y-100113464D01*
X134842000Y-100236536D01*
X134495000Y-100236536D01*
X134353810Y-100263103D01*
X134335321Y-100275000D01*
X134209250Y-100275000D01*
X134114000Y-100370250D01*
X134114000Y-100450786D01*
X134132682Y-100495887D01*
X134106536Y-100625000D01*
X134106536Y-101025000D01*
X134130920Y-101154588D01*
X134106536Y-101275000D01*
X134106536Y-101675000D01*
X134133103Y-101816190D01*
X134216546Y-101945865D01*
X134343866Y-102032859D01*
X134495000Y-102063464D01*
X134895000Y-102063464D01*
X135036190Y-102036897D01*
X135165865Y-101953454D01*
X135252859Y-101826134D01*
X135283464Y-101675000D01*
X135283464Y-101303458D01*
X135338638Y-101292483D01*
X135502796Y-101182796D01*
X135573015Y-101112577D01*
X135580920Y-101154588D01*
X135556536Y-101275000D01*
X135556536Y-101675000D01*
X135583103Y-101816190D01*
X135666546Y-101945865D01*
X135793866Y-102032859D01*
X135945000Y-102063464D01*
X136345000Y-102063464D01*
X136486190Y-102036897D01*
X136573057Y-101981000D01*
X137179557Y-101981000D01*
X137218866Y-102007859D01*
X137370000Y-102038464D01*
X137970000Y-102038464D01*
X138111190Y-102011897D01*
X138198057Y-101956000D01*
X140550000Y-101956000D01*
X140743638Y-101917483D01*
X140907796Y-101807796D01*
X141563808Y-101151784D01*
X141754065Y-101230786D01*
X142243787Y-101231213D01*
X142696395Y-101044200D01*
X143042983Y-100698216D01*
X143054000Y-100671684D01*
X143054000Y-101867323D01*
X143044200Y-101843605D01*
X142698216Y-101497017D01*
X142245935Y-101309214D01*
X141756213Y-101308787D01*
X141303605Y-101495800D01*
X140957017Y-101841784D01*
X140769214Y-102294065D01*
X140768787Y-102783787D01*
X140955800Y-103236395D01*
X141301784Y-103582983D01*
X141328316Y-103594000D01*
X132512677Y-103594000D01*
X132536395Y-103584200D01*
X132882983Y-103238216D01*
X133070786Y-102785935D01*
X133071213Y-102296213D01*
X132884200Y-101843605D01*
X132538216Y-101497017D01*
X132085935Y-101309214D01*
X131596213Y-101308787D01*
X131143605Y-101495800D01*
X130797017Y-101841784D01*
X130786000Y-101868316D01*
X130786000Y-100905021D01*
X131114584Y-100905021D01*
X131208792Y-101084848D01*
X131671993Y-101243822D01*
X132160772Y-101213435D01*
X132471208Y-101084848D01*
X132565416Y-100905021D01*
X131840000Y-100179605D01*
X131114584Y-100905021D01*
X130786000Y-100905021D01*
X130786000Y-100647369D01*
X130934979Y-100725416D01*
X131660395Y-100000000D01*
X132019605Y-100000000D01*
X132745021Y-100725416D01*
X132924848Y-100631208D01*
X133083822Y-100168007D01*
X133053435Y-99679228D01*
X132924848Y-99368792D01*
X132745021Y-99274584D01*
X132019605Y-100000000D01*
X131660395Y-100000000D01*
X130934979Y-99274584D01*
X130786000Y-99352631D01*
X130786000Y-99094979D01*
X131114584Y-99094979D01*
X131840000Y-99820395D01*
X132565416Y-99094979D01*
X132471208Y-98915152D01*
X132008007Y-98756178D01*
X131519228Y-98786565D01*
X131208792Y-98915152D01*
X131114584Y-99094979D01*
X130786000Y-99094979D01*
X130786000Y-98132677D01*
X130795800Y-98156395D01*
X131141784Y-98502983D01*
X131594065Y-98690786D01*
X132083787Y-98691213D01*
X132536395Y-98504200D01*
X132882983Y-98158216D01*
X133070786Y-97705935D01*
X133071213Y-97216213D01*
X132884200Y-96763605D01*
X132538216Y-96417017D01*
X132511684Y-96406000D01*
X141327323Y-96406000D01*
X141303605Y-96415800D01*
X141303605Y-96415800D01*
G37*
X141303605Y-96415800D02*
X140957017Y-96761784D01*
X140769214Y-97214065D01*
X140768787Y-97703787D01*
X140806062Y-97794000D01*
X138197032Y-97794000D01*
X138121134Y-97742141D01*
X137970000Y-97711536D01*
X137370000Y-97711536D01*
X137228810Y-97738103D01*
X137099135Y-97821546D01*
X137070869Y-97862914D01*
X136952204Y-97942204D01*
X136651000Y-98243408D01*
X136651000Y-98174215D01*
X136592996Y-98034181D01*
X136485820Y-97927004D01*
X136345786Y-97869000D01*
X136192250Y-97869000D01*
X136097000Y-97964250D01*
X136097000Y-98375000D01*
X136117000Y-98375000D01*
X136117000Y-98625000D01*
X136097000Y-98625000D01*
X136097000Y-98647000D01*
X135843000Y-98647000D01*
X135843000Y-98625000D01*
X135823000Y-98625000D01*
X135823000Y-98375000D01*
X135843000Y-98375000D01*
X135843000Y-97964250D01*
X135747750Y-97869000D01*
X135594214Y-97869000D01*
X135454180Y-97927004D01*
X135420886Y-97960298D01*
X135392350Y-97940801D01*
X135446987Y-97886259D01*
X135550882Y-97636054D01*
X135551118Y-97365135D01*
X135447661Y-97114748D01*
X135256259Y-96923013D01*
X135006054Y-96819118D01*
X134735135Y-96818882D01*
X134484748Y-96922339D01*
X134293013Y-97113741D01*
X134189118Y-97363946D01*
X134188882Y-97634865D01*
X134292339Y-97885252D01*
X134347448Y-97940457D01*
X134299135Y-97971546D01*
X134212141Y-98098866D01*
X134181536Y-98250000D01*
X134181536Y-98750000D01*
X134208103Y-98891190D01*
X134283493Y-99008350D01*
X134224135Y-99046546D01*
X134137141Y-99173866D01*
X134106536Y-99325000D01*
X134106536Y-99725000D01*
X134131409Y-99857186D01*
X134114000Y-99899214D01*
X134114000Y-99979750D01*
X134209250Y-100075000D01*
X134332364Y-100075000D01*
X134343866Y-100082859D01*
X134495000Y-100113464D01*
X134842000Y-100113464D01*
X134842000Y-100236536D01*
X134495000Y-100236536D01*
X134353810Y-100263103D01*
X134335321Y-100275000D01*
X134209250Y-100275000D01*
X134114000Y-100370250D01*
X134114000Y-100450786D01*
X134132682Y-100495887D01*
X134106536Y-100625000D01*
X134106536Y-101025000D01*
X134130920Y-101154588D01*
X134106536Y-101275000D01*
X134106536Y-101675000D01*
X134133103Y-101816190D01*
X134216546Y-101945865D01*
X134343866Y-102032859D01*
X134495000Y-102063464D01*
X134895000Y-102063464D01*
X135036190Y-102036897D01*
X135165865Y-101953454D01*
X135252859Y-101826134D01*
X135283464Y-101675000D01*
X135283464Y-101303458D01*
X135338638Y-101292483D01*
X135502796Y-101182796D01*
X135573015Y-101112577D01*
X135580920Y-101154588D01*
X135556536Y-101275000D01*
X135556536Y-101675000D01*
X135583103Y-101816190D01*
X135666546Y-101945865D01*
X135793866Y-102032859D01*
X135945000Y-102063464D01*
X136345000Y-102063464D01*
X136486190Y-102036897D01*
X136573057Y-101981000D01*
X137179557Y-101981000D01*
X137218866Y-102007859D01*
X137370000Y-102038464D01*
X137970000Y-102038464D01*
X138111190Y-102011897D01*
X138198057Y-101956000D01*
X140550000Y-101956000D01*
X140743638Y-101917483D01*
X140907796Y-101807796D01*
X141563808Y-101151784D01*
X141754065Y-101230786D01*
X142243787Y-101231213D01*
X142696395Y-101044200D01*
X143042983Y-100698216D01*
X143054000Y-100671684D01*
X143054000Y-101867323D01*
X143044200Y-101843605D01*
X142698216Y-101497017D01*
X142245935Y-101309214D01*
X141756213Y-101308787D01*
X141303605Y-101495800D01*
X140957017Y-101841784D01*
X140769214Y-102294065D01*
X140768787Y-102783787D01*
X140955800Y-103236395D01*
X141301784Y-103582983D01*
X141328316Y-103594000D01*
X132512677Y-103594000D01*
X132536395Y-103584200D01*
X132882983Y-103238216D01*
X133070786Y-102785935D01*
X133071213Y-102296213D01*
X132884200Y-101843605D01*
X132538216Y-101497017D01*
X132085935Y-101309214D01*
X131596213Y-101308787D01*
X131143605Y-101495800D01*
X130797017Y-101841784D01*
X130786000Y-101868316D01*
X130786000Y-100905021D01*
X131114584Y-100905021D01*
X131208792Y-101084848D01*
X131671993Y-101243822D01*
X132160772Y-101213435D01*
X132471208Y-101084848D01*
X132565416Y-100905021D01*
X131840000Y-100179605D01*
X131114584Y-100905021D01*
X130786000Y-100905021D01*
X130786000Y-100647369D01*
X130934979Y-100725416D01*
X131660395Y-100000000D01*
X132019605Y-100000000D01*
X132745021Y-100725416D01*
X132924848Y-100631208D01*
X133083822Y-100168007D01*
X133053435Y-99679228D01*
X132924848Y-99368792D01*
X132745021Y-99274584D01*
X132019605Y-100000000D01*
X131660395Y-100000000D01*
X130934979Y-99274584D01*
X130786000Y-99352631D01*
X130786000Y-99094979D01*
X131114584Y-99094979D01*
X131840000Y-99820395D01*
X132565416Y-99094979D01*
X132471208Y-98915152D01*
X132008007Y-98756178D01*
X131519228Y-98786565D01*
X131208792Y-98915152D01*
X131114584Y-99094979D01*
X130786000Y-99094979D01*
X130786000Y-98132677D01*
X130795800Y-98156395D01*
X131141784Y-98502983D01*
X131594065Y-98690786D01*
X132083787Y-98691213D01*
X132536395Y-98504200D01*
X132882983Y-98158216D01*
X133070786Y-97705935D01*
X133071213Y-97216213D01*
X132884200Y-96763605D01*
X132538216Y-96417017D01*
X132511684Y-96406000D01*
X141327323Y-96406000D01*
X141303605Y-96415800D01*
G36*
X136244000Y-99586536D02*
X135998000Y-99586536D01*
X135998000Y-99425000D01*
X136045000Y-99425000D01*
X136045000Y-99378000D01*
X136244000Y-99378000D01*
X136244000Y-99586536D01*
X136244000Y-99586536D01*
G37*
X136244000Y-99586536D02*
X135998000Y-99586536D01*
X135998000Y-99425000D01*
X136045000Y-99425000D01*
X136045000Y-99378000D01*
X136244000Y-99378000D01*
X136244000Y-99586536D01*
M02*
