G04 #@! TF.FileFunction,Legend,Top*
%FSLAX46Y46*%
G04 Gerber Fmt 4.6, Leading zero omitted, Abs format (unit mm)*
G04 Created by KiCad (PCBNEW 4.0.5-e0-6337~49~ubuntu15.04.1) date Thu Jan 26 14:42:06 2017*
%MOMM*%
%LPD*%
G01*
G04 APERTURE LIST*
%ADD10C,0.100000*%
%ADD11C,0.275000*%
%ADD12C,0.175000*%
%ADD13C,0.127000*%
%ADD14C,0.150000*%
G04 APERTURE END LIST*
D10*
D11*
X133331905Y-103497619D02*
X133331905Y-102397619D01*
X133960476Y-103497619D01*
X133960476Y-102397619D01*
X134484286Y-103497619D02*
X134484286Y-102397619D01*
X134903333Y-102397619D01*
X135008095Y-102450000D01*
X135060476Y-102502381D01*
X135112857Y-102607143D01*
X135112857Y-102764286D01*
X135060476Y-102869048D01*
X135008095Y-102921429D01*
X134903333Y-102973810D01*
X134484286Y-102973810D01*
X135531905Y-103183333D02*
X136055714Y-103183333D01*
X135427143Y-103497619D02*
X135793810Y-102397619D01*
X136160476Y-103497619D01*
X136527143Y-103078571D02*
X137365238Y-103078571D01*
X137836667Y-102502381D02*
X137889048Y-102450000D01*
X137993810Y-102397619D01*
X138255714Y-102397619D01*
X138360476Y-102450000D01*
X138412857Y-102502381D01*
X138465238Y-102607143D01*
X138465238Y-102711905D01*
X138412857Y-102869048D01*
X137784286Y-103497619D01*
X138465238Y-103497619D01*
X139146191Y-102397619D02*
X139250952Y-102397619D01*
X139355714Y-102450000D01*
X139408095Y-102502381D01*
X139460476Y-102607143D01*
X139512857Y-102816667D01*
X139512857Y-103078571D01*
X139460476Y-103288095D01*
X139408095Y-103392857D01*
X139355714Y-103445238D01*
X139250952Y-103497619D01*
X139146191Y-103497619D01*
X139041429Y-103445238D01*
X138989048Y-103392857D01*
X138936667Y-103288095D01*
X138884286Y-103078571D01*
X138884286Y-102816667D01*
X138936667Y-102607143D01*
X138989048Y-102502381D01*
X139041429Y-102450000D01*
X139146191Y-102397619D01*
X140560476Y-103497619D02*
X139931905Y-103497619D01*
X140246191Y-103497619D02*
X140246191Y-102397619D01*
X140141429Y-102554762D01*
X140036667Y-102659524D01*
X139931905Y-102711905D01*
D12*
X139099999Y-100283333D02*
X139199999Y-100316667D01*
X139366666Y-100316667D01*
X139433333Y-100283333D01*
X139466666Y-100250000D01*
X139499999Y-100183333D01*
X139499999Y-100116667D01*
X139466666Y-100050000D01*
X139433333Y-100016667D01*
X139366666Y-99983333D01*
X139233333Y-99950000D01*
X139166666Y-99916667D01*
X139133333Y-99883333D01*
X139099999Y-99816667D01*
X139099999Y-99750000D01*
X139133333Y-99683333D01*
X139166666Y-99650000D01*
X139233333Y-99616667D01*
X139399999Y-99616667D01*
X139499999Y-99650000D01*
X140200000Y-100250000D02*
X140166666Y-100283333D01*
X140066666Y-100316667D01*
X140000000Y-100316667D01*
X139900000Y-100283333D01*
X139833333Y-100216667D01*
X139800000Y-100150000D01*
X139766666Y-100016667D01*
X139766666Y-99916667D01*
X139800000Y-99783333D01*
X139833333Y-99716667D01*
X139900000Y-99650000D01*
X140000000Y-99616667D01*
X140066666Y-99616667D01*
X140166666Y-99650000D01*
X140200000Y-99683333D01*
X140833333Y-100316667D02*
X140500000Y-100316667D01*
X140500000Y-99616667D01*
X139066666Y-97743333D02*
X139166666Y-97776667D01*
X139333333Y-97776667D01*
X139400000Y-97743333D01*
X139433333Y-97710000D01*
X139466666Y-97643333D01*
X139466666Y-97576667D01*
X139433333Y-97510000D01*
X139400000Y-97476667D01*
X139333333Y-97443333D01*
X139200000Y-97410000D01*
X139133333Y-97376667D01*
X139100000Y-97343333D01*
X139066666Y-97276667D01*
X139066666Y-97210000D01*
X139100000Y-97143333D01*
X139133333Y-97110000D01*
X139200000Y-97076667D01*
X139366666Y-97076667D01*
X139466666Y-97110000D01*
X139766667Y-97776667D02*
X139766667Y-97076667D01*
X139933333Y-97076667D01*
X140033333Y-97110000D01*
X140100000Y-97176667D01*
X140133333Y-97243333D01*
X140166667Y-97376667D01*
X140166667Y-97476667D01*
X140133333Y-97610000D01*
X140100000Y-97676667D01*
X140033333Y-97743333D01*
X139933333Y-97776667D01*
X139766667Y-97776667D01*
X140433333Y-97576667D02*
X140766667Y-97576667D01*
X140366667Y-97776667D02*
X140600000Y-97076667D01*
X140833333Y-97776667D01*
X133473333Y-99650000D02*
X133406667Y-99616667D01*
X133306667Y-99616667D01*
X133206667Y-99650000D01*
X133140000Y-99716667D01*
X133106667Y-99783333D01*
X133073333Y-99916667D01*
X133073333Y-100016667D01*
X133106667Y-100150000D01*
X133140000Y-100216667D01*
X133206667Y-100283333D01*
X133306667Y-100316667D01*
X133373333Y-100316667D01*
X133473333Y-100283333D01*
X133506667Y-100250000D01*
X133506667Y-100016667D01*
X133373333Y-100016667D01*
X133006667Y-97076667D02*
X133240000Y-97776667D01*
X133473333Y-97076667D01*
X133706667Y-97510000D02*
X134240000Y-97510000D01*
X133973333Y-97776667D02*
X133973333Y-97243333D01*
D13*
X136730000Y-99525000D02*
G75*
G03X136730000Y-99525000I-60000J0D01*
G01*
X134420000Y-99250000D02*
X136420000Y-99250000D01*
X134420000Y-101750000D02*
X134420000Y-99250000D01*
X136420000Y-101750000D02*
X134420000Y-101750000D01*
X136420000Y-99250000D02*
X136420000Y-101750000D01*
D14*
X135670000Y-98150000D02*
X135170000Y-98150000D01*
X135170000Y-98850000D02*
X135670000Y-98850000D01*
X137270000Y-98500000D02*
X137270000Y-99000000D01*
X138070000Y-99000000D02*
X138070000Y-98500000D01*
X138070000Y-101250000D02*
X138070000Y-100750000D01*
X137270000Y-100750000D02*
X137270000Y-101250000D01*
M02*
