G04 #@! TF.FileFunction,Copper,L2,Bot,Signal*
%FSLAX46Y46*%
G04 Gerber Fmt 4.6, Leading zero omitted, Abs format (unit mm)*
G04 Created by KiCad (PCBNEW 4.0.5-e0-6337~49~ubuntu15.04.1) date Thu Jan 26 14:42:06 2017*
%MOMM*%
%LPD*%
G01*
G04 APERTURE LIST*
%ADD10C,0.100000*%
%ADD11C,1.700000*%
%ADD12C,0.600000*%
%ADD13C,0.254000*%
G04 APERTURE END LIST*
D10*
D11*
X131840000Y-97460000D03*
X131840000Y-100000000D03*
X131840000Y-102540000D03*
X142000000Y-97460000D03*
X142000000Y-100000000D03*
X142000000Y-102540000D03*
D12*
X134870000Y-97500000D03*
X138670000Y-99875000D03*
D13*
G36*
X141303605Y-96415800D02*
X140957017Y-96761784D01*
X140769214Y-97214065D01*
X140768787Y-97703787D01*
X140955800Y-98156395D01*
X141301784Y-98502983D01*
X141754065Y-98690786D01*
X142243787Y-98691213D01*
X142696395Y-98504200D01*
X143042983Y-98158216D01*
X143054000Y-98131684D01*
X143054000Y-99327323D01*
X143044200Y-99303605D01*
X142698216Y-98957017D01*
X142245935Y-98769214D01*
X141756213Y-98768787D01*
X141303605Y-98955800D01*
X140957017Y-99301784D01*
X140769214Y-99754065D01*
X140768787Y-100243787D01*
X140955800Y-100696395D01*
X141301784Y-101042983D01*
X141754065Y-101230786D01*
X142243787Y-101231213D01*
X142696395Y-101044200D01*
X143042983Y-100698216D01*
X143054000Y-100671684D01*
X143054000Y-101867323D01*
X143044200Y-101843605D01*
X142698216Y-101497017D01*
X142245935Y-101309214D01*
X141756213Y-101308787D01*
X141303605Y-101495800D01*
X140957017Y-101841784D01*
X140769214Y-102294065D01*
X140768787Y-102783787D01*
X140955800Y-103236395D01*
X141301784Y-103582983D01*
X141328316Y-103594000D01*
X132512677Y-103594000D01*
X132536395Y-103584200D01*
X132882983Y-103238216D01*
X133070786Y-102785935D01*
X133071213Y-102296213D01*
X132884200Y-101843605D01*
X132538216Y-101497017D01*
X132085935Y-101309214D01*
X131596213Y-101308787D01*
X131143605Y-101495800D01*
X130797017Y-101841784D01*
X130786000Y-101868316D01*
X130786000Y-100672677D01*
X130795800Y-100696395D01*
X131141784Y-101042983D01*
X131594065Y-101230786D01*
X132083787Y-101231213D01*
X132536395Y-101044200D01*
X132882983Y-100698216D01*
X133070786Y-100245935D01*
X133071213Y-99756213D01*
X132884200Y-99303605D01*
X132538216Y-98957017D01*
X132085935Y-98769214D01*
X131596213Y-98768787D01*
X131143605Y-98955800D01*
X130797017Y-99301784D01*
X130786000Y-99328316D01*
X130786000Y-98365021D01*
X131114584Y-98365021D01*
X131208792Y-98544848D01*
X131671993Y-98703822D01*
X132160772Y-98673435D01*
X132471208Y-98544848D01*
X132565416Y-98365021D01*
X131840000Y-97639605D01*
X131114584Y-98365021D01*
X130786000Y-98365021D01*
X130786000Y-98107369D01*
X130934979Y-98185416D01*
X131660395Y-97460000D01*
X132019605Y-97460000D01*
X132745021Y-98185416D01*
X132924848Y-98091208D01*
X133083822Y-97628007D01*
X133053435Y-97139228D01*
X132924848Y-96828792D01*
X132745021Y-96734584D01*
X132019605Y-97460000D01*
X131660395Y-97460000D01*
X131646253Y-97445858D01*
X131825858Y-97266253D01*
X131840000Y-97280395D01*
X132565416Y-96554979D01*
X132487369Y-96406000D01*
X141327323Y-96406000D01*
X141303605Y-96415800D01*
X141303605Y-96415800D01*
G37*
X141303605Y-96415800D02*
X140957017Y-96761784D01*
X140769214Y-97214065D01*
X140768787Y-97703787D01*
X140955800Y-98156395D01*
X141301784Y-98502983D01*
X141754065Y-98690786D01*
X142243787Y-98691213D01*
X142696395Y-98504200D01*
X143042983Y-98158216D01*
X143054000Y-98131684D01*
X143054000Y-99327323D01*
X143044200Y-99303605D01*
X142698216Y-98957017D01*
X142245935Y-98769214D01*
X141756213Y-98768787D01*
X141303605Y-98955800D01*
X140957017Y-99301784D01*
X140769214Y-99754065D01*
X140768787Y-100243787D01*
X140955800Y-100696395D01*
X141301784Y-101042983D01*
X141754065Y-101230786D01*
X142243787Y-101231213D01*
X142696395Y-101044200D01*
X143042983Y-100698216D01*
X143054000Y-100671684D01*
X143054000Y-101867323D01*
X143044200Y-101843605D01*
X142698216Y-101497017D01*
X142245935Y-101309214D01*
X141756213Y-101308787D01*
X141303605Y-101495800D01*
X140957017Y-101841784D01*
X140769214Y-102294065D01*
X140768787Y-102783787D01*
X140955800Y-103236395D01*
X141301784Y-103582983D01*
X141328316Y-103594000D01*
X132512677Y-103594000D01*
X132536395Y-103584200D01*
X132882983Y-103238216D01*
X133070786Y-102785935D01*
X133071213Y-102296213D01*
X132884200Y-101843605D01*
X132538216Y-101497017D01*
X132085935Y-101309214D01*
X131596213Y-101308787D01*
X131143605Y-101495800D01*
X130797017Y-101841784D01*
X130786000Y-101868316D01*
X130786000Y-100672677D01*
X130795800Y-100696395D01*
X131141784Y-101042983D01*
X131594065Y-101230786D01*
X132083787Y-101231213D01*
X132536395Y-101044200D01*
X132882983Y-100698216D01*
X133070786Y-100245935D01*
X133071213Y-99756213D01*
X132884200Y-99303605D01*
X132538216Y-98957017D01*
X132085935Y-98769214D01*
X131596213Y-98768787D01*
X131143605Y-98955800D01*
X130797017Y-99301784D01*
X130786000Y-99328316D01*
X130786000Y-98365021D01*
X131114584Y-98365021D01*
X131208792Y-98544848D01*
X131671993Y-98703822D01*
X132160772Y-98673435D01*
X132471208Y-98544848D01*
X132565416Y-98365021D01*
X131840000Y-97639605D01*
X131114584Y-98365021D01*
X130786000Y-98365021D01*
X130786000Y-98107369D01*
X130934979Y-98185416D01*
X131660395Y-97460000D01*
X132019605Y-97460000D01*
X132745021Y-98185416D01*
X132924848Y-98091208D01*
X133083822Y-97628007D01*
X133053435Y-97139228D01*
X132924848Y-96828792D01*
X132745021Y-96734584D01*
X132019605Y-97460000D01*
X131660395Y-97460000D01*
X131646253Y-97445858D01*
X131825858Y-97266253D01*
X131840000Y-97280395D01*
X132565416Y-96554979D01*
X132487369Y-96406000D01*
X141327323Y-96406000D01*
X141303605Y-96415800D01*
M02*
